<svg width="28" height="28" viewBox="0 0 28 28" fill="none" xmlns="http://www.w3.org/2000/svg">
<path d="M18.6666 10.5C19.4239 11.5097 19.8333 12.7378 19.8333 14C19.8333 15.2621 19.4239 16.4902 18.6666 17.5M22.5913 21.4246C23.5663 20.4496 24.3397 19.2921 24.8674 18.0182C25.3951 16.7442 25.6667 15.3788 25.6667 14C25.6667 12.6211 25.3951 11.2557 24.8674 9.98175C24.3397 8.70782 23.5663 7.5503 22.5913 6.57528M12.8333 5.48562C12.833 5.32312 12.7847 5.16432 12.6943 5.02928C12.6039 4.89424 12.4755 4.789 12.3253 4.72685C12.1752 4.66469 12.01 4.64841 11.8506 4.68005C11.6912 4.71168 11.5448 4.78983 11.4298 4.90462L7.48175 8.85145C7.32939 9.00472 7.14812 9.12624 6.94846 9.20895C6.7488 9.29166 6.5347 9.33392 6.31859 9.33328H3.49992C3.1905 9.33328 2.89375 9.4562 2.67496 9.67499C2.45617 9.89379 2.33325 10.1905 2.33325 10.5V17.5C2.33325 17.8094 2.45617 18.1061 2.67496 18.3249C2.89375 18.5437 3.1905 18.6666 3.49992 18.6666H6.31859C6.5347 18.666 6.7488 18.7082 6.94846 18.791C7.14812 18.8737 7.32939 18.9952 7.48175 19.1485L11.4286 23.0965C11.5436 23.2117 11.6903 23.2902 11.85 23.3221C12.0097 23.3539 12.1752 23.3376 12.3257 23.2753C12.4761 23.2129 12.6046 23.1073 12.695 22.9718C12.7854 22.8364 12.8335 22.6771 12.8333 22.5143V5.48562Z" stroke="#C8E6C9" stroke-width="2.33333" stroke-linecap="round" stroke-linejoin="round"/>
</svg>
