<svg width="32" height="42" viewBox="0 0 32 42" fill="none" xmlns="http://www.w3.org/2000/svg">
<path d="M22.2871 0.00390625C22.4373 0.0235369 22.5723 0.11131 22.6514 0.243164L25.3174 4.6875C25.4352 4.88419 25.4043 5.1357 25.2422 5.29785L20.5059 10.0332C27.1484 11.9791 31.9999 18.1169 32 25.3887C32 34.2252 24.8366 41.3887 16 41.3887C7.16344 41.3887 0 34.2252 0 25.3887C0.000135293 18.1172 4.85107 11.9794 11.4932 10.0332L6.75781 5.29785C6.59571 5.1357 6.5648 4.88417 6.68262 4.6875L9.34961 0.243164L9.38672 0.189453C9.48081 0.070876 9.62461 0 9.77832 0H22.2227L22.2871 0.00390625ZM12.3066 10.8467C5.80836 12.492 1.00014 18.379 1 25.3887C1 33.6729 7.71573 40.3887 16 40.3887C24.2843 40.3887 31 33.6729 31 25.3887C30.9999 18.3787 26.191 12.4927 19.6924 10.8477L17.5049 13.0342C23.668 13.7771 28.4443 19.0252 28.4443 25.3887C28.4443 32.2615 22.8728 37.833 16 37.833C9.12717 37.8329 3.55566 32.2615 3.55566 25.3887C3.55572 19.0255 8.33141 13.7775 14.4941 13.0342L12.3066 10.8467ZM16.3799 14.1611L16.3535 14.1865C16.2598 14.2802 16.1325 14.333 16 14.333C15.8676 14.333 15.7402 14.2801 15.6465 14.1865L15.418 13.958C9.36785 14.261 4.55573 19.2633 4.55566 25.3887C4.55566 31.7092 9.67946 36.8329 16 36.833C22.3205 36.833 27.4443 31.7092 27.4443 25.3887C27.4443 19.2633 22.6321 14.2611 16.582 13.958L16.3799 14.1611ZM16 10.3887C15.7215 10.3887 15.4447 10.3961 15.1699 10.4111L16.0068 12.5029L16.8389 10.4121C16.5612 10.3968 16.2815 10.3887 16 10.3887ZM14.1299 10.5049C13.91 10.5322 13.6915 10.5638 13.4746 10.6006L14.6309 11.7568L14.1299 10.5049ZM17.3877 11.7383L18.5244 10.6006C18.3104 10.5643 18.0949 10.533 17.8779 10.5059L17.3877 11.7383ZM12.6211 9.74707C12.9918 9.66737 13.3673 9.6004 13.7471 9.54688L12.1064 5.44434H8.31836L12.6211 9.74707ZM18.2598 9.54785C18.6369 9.60117 19.0097 9.66793 19.3779 9.74707L23.6816 5.44434H19.8955L18.2598 9.54785ZM14.7793 9.43457C15.1822 9.40417 15.5893 9.38867 16 9.38867C16.4133 9.38867 16.8231 9.40379 17.2285 9.43457L18.8184 5.44434H13.1836L14.7793 9.43457ZM7.99512 4.44434H11.5615L9.77734 1.4707L7.99512 4.44434ZM13.4854 4.44434H18.5146L16 1.2998L13.4854 4.44434ZM20.4395 4.44434H24.0059L22.2217 1.4707L20.4395 4.44434ZM12.5029 4.07031L14.96 1H10.6611L12.5029 4.07031ZM19.4971 4.07031L21.3398 1H17.041L19.4971 4.07031Z" fill="#565F7D"/>
</svg>
